<svg width="520" height="520" viewBox="0 0 520 520" fill="none" xmlns="http://www.w3.org/2000/svg">
  <defs>
    <linearGradient id="g1" x1="60" y1="40" x2="470" y2="520" gradientUnits="userSpaceOnUse">
      <stop stop-color="#6F4BB8" stop-opacity="0.35" />
      <stop offset="0.55" stop-color="#6F4BB8" stop-opacity="0.12" />
      <stop offset="1" stop-color="#6F4BB8" stop-opacity="0.02" />
    </linearGradient>
    <radialGradient id="g2" cx="0" cy="0" r="1" gradientUnits="userSpaceOnUse" gradientTransform="translate(360 160) rotate(135) scale(260 260)">
      <stop stop-color="#6F4BB8" stop-opacity="0.35" />
      <stop offset="1" stop-color="#6F4BB8" stop-opacity="0" />
    </radialGradient>
  </defs>

  <!-- Soft halo -->
  <circle cx="360" cy="160" r="160" fill="url(#g2)" />

  <!-- Decorative arcs -->
  <path
    d="M88 304C160 188 266 124 382 132C458 138 486 176 492 210"
    stroke="#6F4BB8"
    stroke-opacity="0.28"
    stroke-width="14"
    stroke-linecap="round"
  />
  <path
    d="M74 350C160 240 276 192 390 208C444 216 474 248 490 282"
    stroke="#6F4BB8"
    stroke-opacity="0.18"
    stroke-width="10"
    stroke-linecap="round"
  />

  <!-- Subtle grid dots -->
  <g opacity="0.35">
    <circle cx="130" cy="160" r="6" fill="#6F4BB8" fill-opacity="0.45" />
    <circle cx="170" cy="210" r="4" fill="#6F4BB8" fill-opacity="0.35" />
    <circle cx="230" cy="190" r="5" fill="#6F4BB8" fill-opacity="0.25" />
    <circle cx="270" cy="250" r="3" fill="#6F4BB8" fill-opacity="0.25" />
    <circle cx="310" cy="220" r="4" fill="#6F4BB8" fill-opacity="0.22" />
    <circle cx="360" cy="260" r="5" fill="#6F4BB8" fill-opacity="0.2" />
    <circle cx="410" cy="230" r="4" fill="#6F4BB8" fill-opacity="0.18" />
  </g>

  <!-- Frame-ish blob -->
  <path
    d="M120 430C70 380 74 302 108 240C156 150 268 98 370 118C448 134 498 196 500 270C503 362 436 432 344 452C265 469 164 472 120 430Z"
    fill="url(#g1)"
  />
</svg>

